HIERARCHY
ROOT Hips
{
	OFFSET 0.000000 0.000000 0.000000
	CHANNELS 6 Xposition Yposition Zposition Zrotation Yrotation Xrotation 
	JOINT LeftUpLeg_virtual
	{
		OFFSET 0.000000 0.000000 0.000000
		CHANNELS 3 Zrotation Yrotation Xrotation
		JOINT LeftUpLeg
		{
			OFFSET 8.479694 -4.795517 -0.379053
			CHANNELS 3 Zrotation Yrotation Xrotation
			JOINT LeftLeg
			{
				OFFSET 0.485052 -32.551468 0.112863
				CHANNELS 3 Zrotation Yrotation Xrotation
				JOINT LeftFoot
				{
					OFFSET 0.438033 -32.635670 -3.012641
					CHANNELS 3 Zrotation Yrotation Xrotation
					JOINT LeftToeBase
					{
						OFFSET 0.970169 -13.225353 11.864223
						CHANNELS 3 Zrotation Yrotation Xrotation
						End Site
						{
							OFFSET 0.000000 0.000000 0.000000
						}
					}
				}
			}
		}
	}
	JOINT RightUpLeg_virtual
	{
		OFFSET 0.000000 0.000000 0.000000
		CHANNELS 3 Zrotation Yrotation Xrotation
		JOINT RightUpLeg
		{
			OFFSET -8.479694 -4.795517 -0.379053
			CHANNELS 3 Zrotation Yrotation Xrotation
			JOINT RightLeg
			{
				OFFSET -0.484100 -32.551483 0.112903
				CHANNELS 3 Zrotation Yrotation Xrotation
				JOINT RightFoot
				{
					OFFSET -0.438985 -32.635651 -3.012681
					CHANNELS 3 Zrotation Yrotation Xrotation
					JOINT RightToeBase
					{
						OFFSET -0.970169 -13.225354 11.864223
						CHANNELS 3 Zrotation Yrotation Xrotation
						End Site
						{
							OFFSET 0.000000 0.000000 0.000000
						}
					}
				}
			}
		}
	}
	JOINT Spine_virtual
	{
		OFFSET 0.000000 0.000000 0.000000
		CHANNELS 3 Zrotation Yrotation Xrotation
		JOINT Spine
		{
			OFFSET 0.000000 7.722015 1.166203
			CHANNELS 3 Zrotation Yrotation Xrotation
			JOINT Spine1
			{
				OFFSET 0.000000 12.024086 0.248766
				CHANNELS 3 Zrotation Yrotation Xrotation
				JOINT Spine2
				{
					OFFSET -0.000000 11.503036 -0.491240
					CHANNELS 3 Zrotation Yrotation Xrotation
					JOINT Neck_virtual
					{
						OFFSET 0.000000 0.000000 0.000000
						CHANNELS 3 Zrotation Yrotation Xrotation
						JOINT Neck
						{
							OFFSET 0.000000 18.430687 -3.123054
							CHANNELS 3 Zrotation Yrotation Xrotation
							JOINT Head
							{
								OFFSET -0.000000 9.051071 1.034021
								CHANNELS 3 Zrotation Yrotation Xrotation
								End Site
								{
									OFFSET 0.000000 0.000000 0.000000
								}
							}
						}
					}
					JOINT LeftShoulder_virtual
					{
						OFFSET 0.000000 0.000000 0.000000
						CHANNELS 3 Zrotation Yrotation Xrotation
						JOINT LeftShoulder
						{
							OFFSET 6.197824 13.665230 -4.064723
							CHANNELS 3 Zrotation Yrotation Xrotation
							JOINT LeftArm
							{
								OFFSET 7.778132 -0.187073 -1.709282
								CHANNELS 3 Zrotation Yrotation Xrotation
								JOINT LeftForeArm
								{
									OFFSET 21.954697 0.000000 -2.041093
									CHANNELS 3 Zrotation Yrotation Xrotation
									JOINT LeftHand
									{
										OFFSET 22.992908 0.000000 -0.870901
										CHANNELS 3 Zrotation Yrotation Xrotation
										End Site
										{
											OFFSET 0.000000 0.000000 0.000000
										}
									}
								}
							}
						}
					}
					JOINT RightShoulder_virtual
					{
						OFFSET 0.000000 0.000000 0.000000
						CHANNELS 3 Zrotation Yrotation Xrotation
						JOINT RightShoulder
						{
							OFFSET -6.197824 13.665230 -4.064723
							CHANNELS 3 Zrotation Yrotation Xrotation
							JOINT RightArm
							{
								OFFSET -7.778132 -0.187073 -1.709282
								CHANNELS 3 Zrotation Yrotation Xrotation
								JOINT RightForeArm
								{
									OFFSET -21.954697 0.000000 -2.041093
									CHANNELS 3 Zrotation Yrotation Xrotation
									JOINT RightHand
									{
										OFFSET -22.992908 0.000000 -0.870901
										CHANNELS 3 Zrotation Yrotation Xrotation
										End Site
										{
											OFFSET 0.000000 0.000000 0.000000
										}
									}
								}
							}
						}
					}
				}
			}
		}
	}
}
MOTION
Frames: 13
Frame Time: 0.033333
2.135717 81.963547 30.936424 179.903344 -1.395549 179.525867 -4.839748 -0.306896 13.666006 5.536143 -1.738785 -19.850374 2.236058 3.882391 23.077713 3.887765 -7.931235 -10.183662 0.000000 0.000000 0.000000 -0.519085 -1.468567 13.967641 -5.913711 0.996221 -19.477690 -2.141294 5.796721 24.293974 9.486335 4.961011 -8.314335 0.000000 0.000000 0.000000 0.942498 1.534495 3.787327 -4.278952 0.842351 -5.800328 -1.000599 -2.829657 4.476491 -0.050126 -0.030867 -0.046206 -1.200987 -1.494859 4.306686 0.209842 2.767843 -12.873150 0.000000 0.000000 0.000000 0.410594 -0.728845 1.606612 14.742651 8.477469 -4.107014 -0.520226 -3.448601 -43.350196 -0.926375 -34.424570 -5.956836 0.000000 0.000000 0.000000 -3.993089 0.411493 0.694342 4.098575 -13.188810 -2.758813 12.141345 -6.736120 -50.683876 -2.557548 34.334480 -6.104877 0.000000 0.000000 0.000000 
2.129225 81.962814 30.931021 -179.987806 -1.208686 179.291523 -4.896507 -0.522017 13.363389 5.554986 -1.894493 -20.176193 2.074640 4.141694 22.801002 4.222493 -7.611238 -10.451113 0.000000 0.000000 0.000000 -0.503430 -1.335487 13.849774 -6.008374 1.103893 -19.599614 -2.421047 5.652339 24.111584 9.089710 4.565733 -8.381112 0.000000 0.000000 0.000000 0.996267 1.576538 3.990698 -4.227537 0.875214 -5.720782 -0.950093 -2.805744 4.476255 0.007882 0.000791 -0.105345 -1.256636 -1.557317 4.263311 0.226004 2.709186 -12.866719 0.000000 0.000000 0.000000 0.352627 -0.762783 1.596532 14.739664 8.443882 -4.087764 -0.590854 -3.341465 -43.293311 -0.949991 -34.265229 -5.920069 0.000000 0.000000 0.000000 -4.072410 0.398792 0.760351 4.107324 -13.191057 -2.715467 12.170414 -6.747287 -50.631564 -2.552164 34.274743 -6.128863 0.000000 0.000000 0.000000 
2.123665 81.960655 30.923849 -179.995757 -1.164302 179.290376 -4.907073 -0.503218 13.358830 5.541021 -1.888216 -20.176913 2.071204 4.147553 22.799901 4.239251 -7.595841 -10.466011 0.000000 0.000000 0.000000 -0.515836 -1.312368 13.861316 -6.016227 1.134682 -19.593776 -2.428209 5.700295 24.091641 9.095251 4.557555 -8.364424 0.000000 0.000000 0.000000 0.978733 1.440181 3.950038 -4.226438 0.769116 -5.735876 -0.948339 -2.700069 4.482393 0.011538 0.114404 -0.118775 -1.297975 -1.594699 4.310021 0.232112 2.662515 -12.847955 0.000000 0.000000 0.000000 0.321958 -0.726756 1.575823 14.732023 8.432896 -4.085590 -0.654574 -3.322165 -43.198494 -0.939382 -34.204348 -5.911516 0.000000 0.000000 0.000000 -4.089809 0.428559 0.767737 4.141059 -13.150794 -2.758268 12.121799 -6.653439 -50.530662 -2.594596 34.342010 -6.145125 0.000000 0.000000 0.000000 
2.119488 81.963448 30.915956 -179.998366 -1.221075 179.292411 -4.904862 -0.490475 13.361396 5.541821 -1.879276 -20.176041 2.076289 4.128433 22.807764 4.208627 -7.629875 -10.470522 0.000000 0.000000 0.000000 -0.520205 -1.300585 13.871840 -6.005576 1.111702 -19.584135 -2.433258 5.655719 24.093354 9.091440 4.531592 -8.373252 0.000000 0.000000 0.000000 0.990861 1.589219 3.955666 -4.233605 0.850234 -5.717632 -0.955097 -2.823554 4.498589 0.004526 -0.021961 -0.122773 -1.276498 -1.559771 4.380084 0.220900 2.918064 -12.742648 0.000000 0.000000 0.000000 0.343918 -0.757533 1.557988 14.698057 8.426443 -4.202299 -0.774297 -3.295135 -43.322394 -0.915851 -34.371554 -5.971083 0.000000 0.000000 0.000000 -4.080625 0.464224 0.735913 4.083613 -13.155534 -2.756391 12.214560 -6.746784 -50.777559 -2.354198 34.273326 -5.909543 0.000000 0.000000 0.000000 
2.113739 81.965599 30.907135 -179.985511 -1.162185 179.292056 -4.892211 -0.463848 13.367965 5.544083 -1.851613 -20.176789 2.062537 4.130818 22.811239 4.225358 -7.617705 -10.490059 0.000000 0.000000 0.000000 -0.515782 -1.267036 13.875374 -5.989940 1.137391 -19.582767 -2.428166 5.682328 24.083841 9.105635 4.522280 -8.364102 0.000000 0.000000 0.000000 0.984575 1.644916 3.962061 -4.226221 0.881795 -5.734363 -0.953334 -2.770699 4.472835 0.002050 0.036067 -0.159382 -1.247501 -1.559139 4.351826 0.279109 2.554470 -12.801595 0.000000 0.000000 0.000000 0.387084 -0.852079 1.591534 14.712776 8.311920 -4.077188 -0.953842 -3.182592 -43.138652 -0.942738 -34.335241 -5.931224 0.000000 0.000000 0.000000 -4.084976 0.389262 0.779612 4.102212 -13.160617 -2.623837 12.281898 -6.769460 -50.684191 -2.642472 34.303385 -6.227154 0.000000 0.000000 0.000000 
2.109221 81.964813 30.898331 179.973518 -1.224208 179.299187 -4.927171 -0.450598 13.368980 5.527983 -1.840520 -20.185890 2.060426 4.116724 22.812837 4.194067 -7.660505 -10.503136 0.000000 0.000000 0.000000 -0.550334 -1.251163 13.887523 -5.996084 1.104429 -19.574465 -2.441173 5.663291 24.083431 9.099504 4.487788 -8.376934 0.000000 0.000000 0.000000 0.937432 1.650163 3.907637 -4.267225 0.855193 -5.725094 -0.979593 -2.799014 4.522732 -0.017173 0.011969 -0.081141 -1.227500 -1.556101 4.367170 0.237628 2.924164 -12.756458 0.000000 0.000000 0.000000 0.413815 -0.760720 1.586388 14.724192 8.373469 -4.069339 -0.953387 -3.266776 -43.177317 -0.830838 -34.450006 -6.031081 0.000000 0.000000 0.000000 -3.983229 0.341094 0.719038 4.024574 -13.151283 -2.794721 12.305832 -6.642613 -50.757687 -2.496439 34.099508 -6.053490 0.000000 0.000000 0.000000 
2.109165 81.968483 30.884739 -179.989131 -1.132939 179.296318 -4.918871 -0.405657 13.375781 5.546453 -1.800291 -20.185431 2.077456 4.102128 22.816001 4.216765 -7.646752 -10.530395 0.000000 0.000000 0.000000 -0.543505 -1.196292 13.887631 -5.968020 1.116483 -19.577761 -2.419736 5.669930 24.089068 9.129000 4.488899 -8.361484 0.000000 0.000000 0.000000 0.945592 1.659890 3.866520 -4.233872 0.829830 -5.736460 -0.936649 -2.826892 4.503669 0.006211 -0.012219 -0.130613 -1.238390 -1.579061 4.420857 0.289841 2.558695 -12.694576 0.000000 0.000000 0.000000 0.377079 -0.721853 1.571987 14.665483 8.406810 -4.045650 -1.095949 -3.223476 -43.043743 -0.918506 -34.443305 -5.897327 0.000000 0.000000 0.000000 -4.058848 0.476586 0.725181 4.069820 -13.010550 -2.644178 12.359457 -6.765966 -50.627439 -2.552037 34.254109 -6.054526 0.000000 0.000000 0.000000 
2.114349 81.967697 30.870752 -179.996221 -1.236786 179.291865 -4.931676 -0.404800 13.373551 5.544841 -1.804680 -20.180019 2.062380 4.057732 22.834239 4.185421 -7.697933 -10.530623 0.000000 0.000000 0.000000 -0.560581 -1.207299 13.908769 -5.954109 1.062800 -19.555682 -2.427247 5.615584 24.084123 9.129714 4.459321 -8.374915 0.000000 0.000000 0.000000 0.941778 1.701988 3.863069 -4.248044 0.863360 -5.700715 -0.938833 -2.806766 4.545321 -0.028322 0.012522 -0.120988 -1.202804 -1.563731 4.279588 0.207461 3.168462 -12.639436 0.000000 0.000000 0.000000 0.420029 -0.819426 1.587771 14.711836 8.320132 -4.106204 -1.138958 -3.166273 -43.125712 -0.821836 -34.204617 -5.929850 0.000000 0.000000 0.000000 -4.027118 0.365840 0.732145 4.089689 -13.073367 -2.587623 12.331247 -6.732988 -50.552327 -2.599837 34.081169 -6.057695 0.000000 0.000000 0.000000 
2.124971 81.968269 30.857555 179.993994 -1.223351 179.296632 -4.938228 -0.397166 13.362222 5.547482 -1.807068 -20.163775 2.053515 4.035357 22.852124 4.202011 -7.696723 -10.531146 0.000000 0.000000 0.000000 -0.573845 -1.201403 13.907439 -5.944540 1.037940 -19.543145 -2.418628 5.598607 24.071335 9.157941 4.455266 -8.378926 0.000000 0.000000 0.000000 0.917579 1.675865 3.823354 -4.255441 0.832440 -5.674832 -0.911790 -2.830983 4.537444 0.018338 -0.010661 -0.133343 -1.244177 -1.639143 4.365045 0.208340 3.175624 -12.567174 0.000000 0.000000 0.000000 0.386354 -0.789733 1.545347 14.690577 8.354413 -4.171996 -1.112108 -3.163905 -43.101171 -0.934287 -34.413813 -5.779665 0.000000 0.000000 0.000000 -4.008688 0.374737 0.721478 3.975425 -13.016915 -2.756727 12.518045 -6.761060 -50.651925 -2.421312 34.162496 -5.853354 0.000000 0.000000 0.000000 
2.140330 81.971802 30.846069 179.978749 -1.102628 179.304200 -4.960171 -0.382108 13.340953 5.545634 -1.807663 -20.141307 2.051418 4.045237 22.858044 4.256124 -7.646453 -10.538588 0.000000 0.000000 0.000000 -0.586024 -1.168826 13.878311 -5.952363 1.039782 -19.535473 -2.403503 5.661394 24.064271 9.197148 4.458566 -8.356635 0.000000 0.000000 0.000000 0.916687 1.679630 3.798121 -4.266957 0.868936 -5.709965 -0.953028 -2.795450 4.526294 0.030122 0.018116 -0.104913 -1.210201 -1.550491 4.340163 0.194863 2.818231 -12.507804 0.000000 0.000000 0.000000 0.439769 -0.784124 1.539813 14.703524 8.336534 -4.146058 -1.154409 -3.237131 -42.942144 -0.837391 -34.192972 -5.798519 0.000000 0.000000 0.000000 -3.956126 0.432763 0.702358 4.013284 -12.938245 -2.572710 12.528130 -6.757952 -50.555687 -2.659313 34.266369 -6.030611 0.000000 0.000000 0.000000 
2.156083 81.976295 30.841505 -179.979391 -1.116183 179.287329 -4.925919 -0.410003 13.322281 5.571258 -1.834423 -20.109745 2.006717 3.986475 22.881899 4.309976 -7.604809 -10.535723 0.000000 0.000000 0.000000 -0.556227 -1.211782 13.860355 -5.921579 1.016549 -19.496802 -2.379160 5.662068 24.053261 9.236008 4.462806 -8.354035 0.000000 0.000000 0.000000 0.924961 1.666079 3.792824 -4.281867 0.888700 -5.572687 -0.882096 -2.798304 4.451417 0.006802 0.014688 -0.176253 -1.170341 -1.570231 4.278212 0.281471 2.402392 -12.467942 0.000000 0.000000 0.000000 0.439469 -0.792331 1.528270 14.707110 8.327304 -4.188053 -1.257159 -3.187083 -42.818671 -0.947858 -34.287796 -5.651905 0.000000 0.000000 0.000000 -3.953943 0.371539 0.829506 4.047949 -12.949039 -2.647358 12.547854 -6.749500 -50.678037 -2.609513 34.194970 -5.966910 0.000000 0.000000 0.000000 
2.172882 81.976204 30.840042 179.977288 -0.992903 179.295662 -4.964860 -0.418224 13.304089 5.556180 -1.858196 -20.091500 1.991002 3.994044 22.893240 4.380631 -7.530800 -10.549983 0.000000 0.000000 0.000000 -0.580919 -1.207721 13.808894 -5.945130 0.992697 -19.480348 -2.361104 5.756143 24.053148 9.288076 4.470365 -8.360282 0.000000 0.000000 0.000000 0.896280 1.620254 3.772459 -4.322607 0.897014 -5.671730 -0.893591 -2.768108 4.529913 -0.028034 0.031824 -0.096162 -1.121087 -1.503023 4.288204 0.259680 2.536313 -12.394675 0.000000 0.000000 0.000000 0.491434 -0.726722 1.427414 14.719305 8.265479 -4.133060 -1.273544 -3.231585 -42.665989 -0.862188 -34.303771 -5.654661 0.000000 0.000000 0.000000 -3.908011 0.441702 0.662301 4.094024 -12.831123 -2.642351 12.516246 -6.829427 -50.600497 -2.594052 34.333756 -5.899415 0.000000 0.000000 0.000000 
2.188970 81.977142 30.836233 -179.970499 -1.004505 179.296796 -4.927541 -0.450987 13.299964 5.580958 -1.888039 -20.081817 1.972527 3.939116 22.918039 4.409374 -7.496114 -10.570922 0.000000 0.000000 0.000000 -0.544795 -1.249391 13.773868 -5.913825 0.939060 -19.454964 -2.325739 5.736402 24.059693 9.339602 4.470562 -8.389715 0.000000 0.000000 0.000000 0.906113 1.593166 3.763630 -4.322469 0.883843 -5.665414 -0.855776 -2.798640 4.495289 0.008017 0.002755 -0.136401 -1.145969 -1.545502 4.357720 0.246395 2.482433 -12.355629 0.000000 0.000000 0.000000 0.489828 -0.714328 1.464349 14.676897 8.256055 -4.037464 -1.376286 -3.176534 -42.495579 -0.919729 -34.359823 -5.512615 0.000000 0.000000 0.000000 -3.922075 0.508694 0.695668 4.104022 -12.732328 -2.644160 12.594925 -6.884057 -50.536836 -2.643191 34.432056 -5.912897 0.000000 0.000000 0.000000 
